<?xml version="1.0" standalone="no"?>
<!DOCTYPE svg PUBLIC "-//W3C//DTD SVG 20010904//EN"
 "http://www.w3.org/TR/2001/REC-SVG-20010904/DTD/svg10.dtd">
<svg version="1.0" xmlns="http://www.w3.org/2000/svg"
 width="504.000000pt" height="392.000000pt" viewBox="0 0 504.000000 392.000000"
 preserveAspectRatio="xMidYMid meet">

<g transform="translate(0.000000,392.000000) scale(0.100000,-0.100000)"
fill="#000000" stroke="none">
<path d="M190 2010 l0 -1910 100 0 100 0 2 1643 c2 903 7 1650 12 1659 15 32
23 9 25 -74 3 -134 8 -145 86 -211 48 -40 71 -54 75 -45 4 7 2 46 -3 85 -6 40
-8 76 -4 79 3 4 18 -1 31 -10 70 -45 60 9 -11 70 -32 27 -68 58 -79 69 -12 11
-35 31 -52 44 -17 14 -29 28 -26 33 3 4 19 -5 37 -21 18 -16 55 -50 84 -76 29
-26 59 -45 67 -43 11 2 -3 19 -41 50 -32 26 -72 59 -89 75 -17 16 -48 43 -69
60 -67 56 -33 44 50 -17 148 -109 239 -170 244 -165 2 3 -51 58 -120 123 -193
181 -258 247 -220 222 33 -22 33 -23 22 -2 -6 11 -16 24 -21 27 -16 10 -12 27
5 18 8 -5 86 -79 173 -166 88 -86 165 -157 171 -157 7 0 10 -3 8 -7 -3 -5 -2
-28 2 -53 5 -36 11 -45 31 -51 l25 -7 -24 -1 c-23 -1 -23 -2 -7 -14 15 -11 16
-17 5 -42 -17 -40 -19 -69 -6 -76 5 -4 10 -20 11 -37 1 -19 5 -28 14 -25 20 8
14 -22 -10 -43 -19 -17 -21 -17 -15 -1 7 20 -1 47 -15 47 -5 0 -8 -8 -6 -18 2
-11 -4 -27 -12 -37 -14 -17 -13 -17 9 -10 20 6 23 5 17 -10 -6 -16 -4 -16 11
-4 10 7 23 19 29 25 6 8 15 9 25 3 12 -7 11 -9 -3 -9 -15 0 -58 -48 -58 -64 0
-16 32 -3 54 21 38 41 51 20 53 -82 0 -47 -2 -85 -5 -85 -31 1 -422 328 -422
352 0 4 -3 8 -7 8 -5 0 -7 -55 -5 -122 l4 -123 71 -41 c40 -23 74 -40 75 -39
2 2 6 27 8 56 3 29 6 55 8 57 5 5 94 -85 123 -125 24 -32 23 -89 -1 -108 -7
-5 -15 -17 -19 -25 -3 -9 -6 -10 -6 -2 -1 18 -26 14 -46 -8 -10 -11 -15 -20
-11 -20 4 0 0 -7 -8 -16 -9 -9 -16 -32 -16 -54 0 -44 7 -47 115 -52 l60 -3 1
55 c0 30 1 67 2 81 l2 26 34 -16 c33 -16 33 -16 38 -101 3 -47 2 -107 -2 -135
-7 -50 -7 -50 -9 -9 -1 40 -1 40 -43 42 -24 2 -75 6 -115 10 l-72 8 5 -45 c13
-102 48 -193 80 -205 23 -9 27 -2 34 52 4 35 9 46 20 43 8 -2 34 -6 58 -8 l42
-6 0 -150 0 -150 -118 7 -119 8 5 -32 c3 -22 8 -28 15 -21 6 6 24 11 39 11 15
0 28 6 29 13 1 15 17 -22 18 -41 1 -10 -12 -13 -49 -10 -49 3 -50 2 -50 -25 0
-17 4 -26 11 -22 16 11 59 -4 59 -20 0 -9 -13 -15 -37 -17 -55 -4 -52 -32 3
-36 36 -3 41 -6 37 -23 -7 -24 -20 -25 -26 -1 -4 16 -5 16 -6 0 0 -10 -8 -18
-16 -18 -8 0 -15 8 -16 18 0 10 -4 7 -11 -11 -15 -41 -4 -57 37 -57 19 0 35
-4 35 -9 0 -13 -54 -21 -61 -9 -11 18 -15 -6 -11 -77 l3 -71 35 4 c26 3 34 1
34 -12 0 -12 -10 -16 -39 -16 l-39 0 5 -84 c4 -55 2 -86 -6 -90 -7 -5 -11 9
-11 43 l0 51 -90 0 -90 0 0 -234 0 -233 38 -7 c20 -3 87 -9 147 -12 61 -4 116
-11 123 -17 8 -6 12 -6 12 2 0 15 30 14 30 -1 1 -8 6 -6 14 4 14 19 26 14 26
-10 0 -13 -22 -14 -157 -9 -87 4 -175 11 -196 16 l-38 9 1 -201 c1 -205 7
-297 19 -279 3 5 22 14 41 21 38 13 113 70 92 71 -7 0 -11 4 -7 10 3 5 3 20
-1 34 -8 35 -54 31 -72 -7 -16 -34 -24 -34 -39 0 -18 37 -17 207 0 221 19 16
159 62 168 56 5 -2 6 -11 3 -18 -7 -18 28 -30 57 -21 15 5 19 4 15 -4 -4 -6
-25 -11 -47 -11 -34 0 -39 -3 -39 -24 0 -22 5 -23 77 -30 42 -3 93 -6 115 -6
l38 0 0 -274 0 -274 -50 -7 -50 -7 0 -39 c0 -39 0 -39 40 -39 33 0 40 -3 40
-19 0 -17 11 -20 113 -25 135 -8 174 0 168 35 -3 13 -6 632 -8 1375 -3 1340
-3 1351 17 1375 l20 24 -3 -1403 -2 -1402 71 0 c90 0 134 9 134 26 0 8 -5 14
-12 14 -6 0 -3 9 7 21 19 20 19 20 -8 10 -26 -10 -39 1 -17 14 5 3 15 15 21
27 10 18 8 19 -11 13 -19 -6 -21 -5 -11 13 15 27 14 39 -1 24 -17 -17 -28 -15
-28 5 0 10 -12 27 -27 38 l-26 22 0 144 c0 79 3 448 6 819 2 371 2 679 -1 685
-8 13 -10 45 -3 41 9 -6 7 381 -1 390 -4 4 -4 12 1 18 5 6 5 69 -1 150 -10
127 -9 140 6 152 11 8 13 14 7 19 -6 3 -11 17 -11 31 0 16 -6 24 -17 25 -12 0
-13 2 -5 6 9 3 10 9 3 17 -20 24 -17 96 4 96 8 0 15 5 15 10 0 20 29 9 54 -21
14 -17 26 -24 26 -16 0 7 -18 28 -40 46 -29 23 -40 28 -40 16 0 -8 -5 -15 -11
-15 -6 0 -17 -7 -26 -15 -8 -8 -20 -12 -26 -8 -8 5 -8 8 1 11 7 2 19 16 26 31
12 22 12 29 1 45 -8 10 -18 15 -24 12 -14 -9 -21 7 -11 24 7 12 15 9 39 -14
17 -16 33 -27 36 -24 3 3 -8 17 -25 31 -16 14 -30 30 -30 36 0 6 -7 11 -15 11
-9 0 -15 -9 -15 -22 0 -17 -3 -19 -12 -10 -8 8 -8 15 1 26 11 13 9 21 -12 45
-14 17 -27 28 -29 26 -2 -2 -4 5 -5 16 -2 26 7 20 97 -66 113 -109 160 -149
160 -136 0 6 -54 68 -120 136 -66 68 -120 131 -120 140 0 8 -4 15 -10 15 -5 0
-10 11 -10 25 0 35 113 376 167 503 24 59 47 113 50 120 4 9 -63 12 -316 12
-177 0 -321 -1 -321 -3 0 -2 5 -30 10 -63 25 -142 31 -164 46 -164 8 0 12 -5
9 -10 -4 -6 -11 -7 -17 -4 -6 4 -8 -1 -3 -16 10 -32 16 -70 17 -113 0 -20 4
-40 9 -43 5 -3 9 -10 9 -15 0 -6 -4 -8 -10 -4 -5 3 -8 -16 -6 -50 2 -30 2 -55
0 -55 -3 0 -233 236 -284 293 -35 39 -41 50 -29 57 12 8 12 13 1 31 -9 14 -10
24 -3 28 6 4 7 12 1 21 -8 13 -10 12 -10 -2 0 -24 -27 -23 -40 1 -5 11 -10 40
-10 65 l0 46 -90 0 -90 0 0 -1910z m393 1284 c52 -36 77 -64 58 -64 -6 0 -26
15 -45 33 -18 18 -44 40 -57 49 -13 10 -21 17 -16 17 4 1 31 -15 60 -35z m551
-193 c3 -5 -1 -11 -9 -14 -9 -4 -12 -1 -8 9 6 16 10 17 17 5z m-4 -65 c0 -3
-4 -8 -10 -11 -5 -3 -10 -1 -10 4 0 6 5 11 10 11 6 0 10 -2 10 -4z m0 -71 c0
-8 -4 -15 -10 -15 -5 0 -7 7 -4 15 4 8 8 15 10 15 2 0 4 -7 4 -15z m14 -29
c-6 -15 -24 -23 -24 -11 0 8 24 34 28 30 1 -1 0 -10 -4 -19z m-334 -961 c0
-35 -10 -42 -43 -29 -23 8 -2 64 24 64 15 0 19 -7 19 -35z m48 -8 c2 -19 -1
-27 -12 -27 -11 0 -16 10 -16 31 0 38 24 35 28 -4z m-48 -85 c0 -25 -73 -24
-78 1 -3 14 4 17 37 17 33 0 41 -4 41 -18z m50 -2 c0 -11 -7 -20 -15 -20 -8 0
-15 9 -15 20 0 11 7 20 15 20 8 0 15 -9 15 -20z m-47 -70 c-7 -28 -83 -30 -83
-2 0 15 9 19 44 21 40 2 44 0 39 -19z m47 -5 c0 -18 -4 -23 -15 -19 -8 4 -15
15 -15 25 0 10 7 19 15 19 9 0 15 -9 15 -25z m-62 -78 c-16 -17 -60 -15 -66 1
-2 8 11 12 38 12 35 0 39 -2 28 -13z m62 -2 c0 -8 -9 -15 -20 -15 -11 0 -20 7
-20 15 0 8 9 15 20 15 11 0 20 -7 20 -15z m-154 -77 c0 -13 -8 -18 -27 -18
-22 0 -26 4 -22 19 6 24 49 23 49 -1z m44 2 c0 -11 -4 -20 -10 -20 -5 0 -10 9
-10 20 0 11 5 20 10 20 6 0 10 -9 10 -20z m80 16 c0 -2 -7 -6 -15 -10 -8 -3
-15 -1 -15 4 0 6 7 10 15 10 8 0 15 -2 15 -4z m30 -16 c0 -11 -4 -20 -10 -20
-5 0 -10 9 -10 20 0 11 5 20 10 20 6 0 10 -9 10 -20z m-110 -86 c0 -8 -4 -14
-10 -14 -5 0 -10 9 -10 21 0 11 5 17 10 14 6 -3 10 -13 10 -21z m60 4 c0 -12
-8 -18 -24 -18 -18 0 -23 5 -21 18 2 9 4 17 4 17 16 8 41 -3 41 -17z m50 2 c0
-11 -6 -20 -14 -20 -7 0 -16 9 -19 20 -4 15 0 20 14 20 12 0 19 -7 19 -20z m0
-80 c0 -11 -7 -20 -15 -20 -15 0 -21 21 -8 33 12 13 23 7 23 -13z m-159 -13
c-10 -9 -11 -8 -5 6 3 10 9 15 12 12 3 -3 0 -11 -7 -18z m-21 3 c0 -5 -4 -10
-10 -10 -5 0 -10 5 -10 10 0 6 5 10 10 10 6 0 10 -4 10 -10z m176 -72 c-2 -19
-10 -24 -44 -26 -37 -3 -42 -1 -42 17 0 13 6 21 18 21 13 0 14 -2 4 -9 -11 -7
-10 -10 3 -15 27 -10 35 -7 35 14 0 11 7 20 15 20 10 0 14 -8 11 -22z m-159
-8 c1 -11 -4 -20 -13 -20 -8 0 -14 9 -14 20 0 11 6 20 13 20 7 0 13 -9 14 -20z
m43 0 c0 -11 -4 -20 -10 -20 -5 0 -10 9 -10 20 0 11 5 20 10 20 6 0 10 -9 10
-20z m87 -202 c-3 -7 -5 -2 -5 12 0 14 2 19 5 13 2 -7 2 -19 0 -25z m-370
-110 c-3 -8 -6 -5 -6 6 -1 11 2 17 5 13 3 -3 4 -12 1 -19z m360 -50 c-3 -8 -6
-5 -6 6 -1 11 2 17 5 13 3 -3 4 -12 1 -19z"/>
<path d="M1346 3903 c-6 -14 -5 -15 5 -6 7 7 10 15 7 18 -3 3 -9 -2 -12 -12z"/>
<path d="M2063 3906 c-13 -6 -23 -14 -23 -18 0 -5 -9 -8 -20 -8 -11 0 -20 -4
-20 -10 0 -5 -5 -10 -10 -10 -6 0 -17 -6 -24 -12 -11 -11 -11 -15 1 -23 8 -6
15 -20 16 -33 0 -12 5 -22 10 -22 4 0 5 -5 2 -11 -4 -6 -13 -8 -21 -5 -8 3
-14 -1 -14 -9 0 -8 -4 -15 -8 -15 -10 0 -64 -44 -117 -95 -23 -22 -54 -49 -68
-60 -15 -11 -27 -26 -27 -34 0 -10 8 -7 27 10 26 23 26 23 -3 -12 -16 -20 -50
-60 -75 -90 -66 -78 -118 -156 -198 -304 -83 -152 -131 -268 -170 -410 l-28
-104 1 -1023 1 -1023 98 1 c54 1 103 6 108 11 6 6 2 19 -10 35 -19 24 -20 37
-16 234 2 115 7 225 10 244 3 19 7 301 8 627 l2 592 -34 16 c-25 12 -31 19
-22 25 11 6 10 12 -4 31 -17 24 -17 24 -11 -24 7 -57 9 -1667 2 -1674 -3 -3
-12 -3 -21 0 -13 6 -15 88 -15 744 0 406 3 795 7 866 5 113 8 127 24 127 21 0
48 42 31 48 -5 1 -8 12 -5 22 3 11 0 20 -6 20 -6 0 -11 -7 -11 -15 0 -8 -4
-15 -10 -15 -15 0 -12 29 5 46 8 9 15 23 15 32 -1 16 -2 16 -14 0 -17 -23 -56
-24 -56 -1 0 9 -3 13 -7 10 -3 -4 -12 -2 -20 4 -10 9 -13 8 -13 -4 0 -8 6 -17
13 -20 6 -2 9 -8 4 -13 -4 -4 -15 -1 -24 8 -21 22 -10 50 18 46 14 -2 23 3 24
13 15 97 139 383 188 431 14 14 38 50 53 79 14 30 30 56 33 59 4 3 34 43 66
90 206 299 303 386 480 425 112 26 427 31 570 11 204 -30 309 -71 432 -171 73
-58 81 -68 71 -85 -9 -14 -9 -22 1 -34 7 -9 18 -13 25 -9 6 3 8 3 4 -2 -4 -4
-3 -14 3 -22 9 -9 8 -13 0 -13 -8 0 -8 -4 1 -14 7 -8 16 -12 20 -10 4 3 12 -5
18 -16 6 -11 8 -20 4 -20 -4 0 1 -10 12 -22 36 -42 66 -90 60 -95 -3 -4 -7 -4
-9 -2 -2 2 -31 40 -64 84 -79 105 -195 214 -274 258 -153 85 -304 111 -599
104 -214 -5 -286 -17 -390 -64 -68 -30 -166 -109 -221 -177 -27 -34 -54 -67
-60 -73 -17 -23 5 -14 36 13 176 154 321 208 590 219 385 17 710 -99 946 -337
20 -21 41 -38 47 -38 16 0 192 -274 192 -298 0 -11 -58 79 -71 110 -6 15 -15
25 -20 22 -5 -3 -8 -2 -7 3 4 12 -42 83 -53 83 -6 0 -7 -6 -3 -12 4 -7 -15 7
-42 32 -113 101 -175 142 -334 220 -295 144 -561 169 -890 84 -228 -60 -480
-231 -576 -391 -14 -24 -24 -43 -22 -43 2 0 32 27 68 61 83 78 200 166 248
186 20 9 70 17 109 19 40 2 101 10 135 18 35 7 85 17 111 21 27 3 58 8 69 10
37 8 232 8 258 1 14 -4 41 -9 60 -11 82 -8 129 -17 194 -36 85 -25 81 -36 -5
-14 -141 37 -290 48 -414 30 -174 -25 -346 -93 -331 -131 3 -9 -1 -14 -12 -14
-15 0 -15 -2 -2 -10 13 -8 12 -10 -2 -10 -10 0 -18 -6 -18 -12 0 -7 -23 -35
-52 -61 -34 -31 -40 -40 -18 -24 66 47 184 92 301 116 87 18 226 17 256 -2 6
-4 14 -3 18 3 6 9 35 -10 35 -23 0 -3 -44 -8 -97 -11 -167 -12 -346 -61 -473
-130 -142 -76 -283 -228 -342 -366 -30 -70 -69 -214 -68 -247 1 -4 18 26 38
67 57 114 89 166 170 272 131 173 214 234 373 278 85 23 205 34 214 19 4 -5
12 -9 18 -9 7 0 6 4 -3 10 -13 8 -13 10 2 10 9 0 20 -4 23 -10 3 -5 13 -10 21
-10 8 0 13 4 10 9 -4 5 2 8 11 6 10 -2 18 -4 18 -5 0 -1 25 -4 55 -7 76 -7 76
-13 -1 -12 -157 1 -363 -48 -484 -116 -62 -35 -147 -105 -127 -105 6 0 14 4
17 10 3 5 16 15 28 20 19 9 20 9 7 -2 -8 -7 -22 -22 -30 -33 -14 -19 -14 -19
15 1 41 28 172 82 216 90 22 3 39 1 43 -5 5 -7 15 -7 32 -1 14 6 37 10 52 9
25 -1 24 -2 -8 -11 -117 -33 -213 -75 -289 -127 -61 -43 -152 -131 -134 -131
6 0 18 7 26 15 8 8 17 11 21 8 3 -4 6 0 6 8 0 14 61 54 76 49 4 -1 10 2 13 7
8 12 185 76 266 97 33 9 120 21 193 28 138 12 184 8 322 -29 30 -8 62 -15 70
-15 8 -1 21 -5 28 -11 6 -5 12 -7 12 -3 0 20 277 -144 308 -182 8 -11 12 -12
12 -3 0 11 3 11 17 0 32 -26 -24 46 -65 83 -77 70 -281 185 -332 189 -8 1 0 5
18 9 72 17 288 -94 416 -215 84 -79 33 6 -55 92 -113 110 -223 176 -376 223
-40 13 -73 27 -73 31 0 5 12 4 26 -1 14 -6 37 -7 51 -4 17 5 24 3 20 -3 -4 -6
2 -13 13 -16 11 -3 17 -1 14 4 -12 20 64 -3 146 -44 67 -33 103 -61 176 -132
50 -49 107 -110 126 -134 19 -24 38 -39 41 -34 14 22 -61 150 -129 220 -64 66
-191 163 -214 163 -6 0 -10 4 -10 9 0 5 -10 11 -22 13 -13 2 -22 9 -21 15 1 6
-6 9 -18 6 -13 -4 -19 -1 -17 8 2 10 -6 13 -31 11 -27 -2 -32 0 -27 14 5 14 4
15 -9 4 -8 -7 -22 -9 -32 -5 -15 6 -14 9 11 20 27 11 27 12 7 18 -11 3 -19 1
-15 -4 7 -11 -7 -11 -24 0 -11 7 -11 9 2 14 21 8 73 -11 80 -29 3 -8 15 -14
26 -14 11 0 37 -8 58 -19 20 -10 43 -16 50 -14 6 3 12 0 12 -5 0 -9 40 -25 65
-26 6 -1 13 -5 17 -11 5 -6 8 -5 8 3 0 7 -7 15 -15 18 -10 4 -14 17 -13 35 2
31 8 35 25 18 9 -9 11 -8 9 4 -1 9 -21 30 -44 47 -23 16 -42 34 -42 38 0 4 -8
8 -18 9 -9 1 -47 15 -84 32 -36 17 -71 31 -77 31 -6 0 -11 4 -11 10 0 5 18 3
40 -5 22 -8 48 -12 58 -9 13 4 14 3 4 -4 -10 -7 -5 -11 20 -16 18 -3 57 -18
86 -32 29 -14 59 -23 66 -21 21 8 140 -88 130 -104 -3 -5 1 -9 8 -9 7 0 35
-23 63 -50 53 -54 77 -66 51 -25 -9 14 -12 25 -6 25 5 0 10 -3 10 -7 0 -5 9
-19 20 -33 l19 -25 -5 25 c-3 14 19 -13 51 -60 57 -86 105 -171 105 -189 0 -5
-16 -19 -36 -30 -20 -12 -34 -24 -31 -27 3 -4 16 1 29 10 12 9 29 16 38 16 8
0 -2 -11 -23 -25 -23 -16 -37 -34 -37 -47 0 -19 2 -20 18 -6 34 31 78 48 91
35 16 -16 14 -32 -4 -17 -19 16 -47 6 -78 -30 -23 -25 -25 -34 -17 -55 6 -15
10 -41 10 -58 0 -28 -8 -37 -62 -71 -34 -22 -67 -39 -74 -39 -7 0 -11 -4 -8
-8 2 -4 -2 -9 -8 -12 -7 -2 -10 -7 -7 -11 4 -4 32 7 63 24 31 18 56 29 56 25
0 -3 7 1 16 10 9 9 19 14 22 11 6 -6 -56 -66 -69 -66 -5 0 -9 -4 -9 -10 0 -5
-11 -12 -24 -16 -18 -4 -23 -11 -21 -26 3 -12 6 -23 9 -25 6 -6 -14 -63 -22
-63 -4 0 -20 -12 -37 -26 l-30 -26 28 17 c31 18 47 14 30 -7 -6 -7 -13 -26
-16 -43 -17 -90 -62 -223 -89 -265 -9 -14 -18 -32 -20 -40 -2 -8 -8 -19 -15
-25 -6 -5 -25 -38 -43 -72 -18 -35 -36 -63 -41 -63 -5 0 -9 -8 -9 -19 0 -10
-7 -24 -15 -31 -22 -18 -19 -7 20 71 41 84 42 91 13 87 -14 -2 -23 -10 -22
-20 1 -11 -4 -14 -13 -11 -9 4 -13 15 -10 29 5 28 5 28 -33 9 -17 -9 -30 -14
-30 -13 0 2 4 18 9 35 6 20 6 35 0 38 -5 4 -9 2 -9 -3 0 -6 -12 -15 -27 -22
-54 -22 -72 -34 -76 -52 -4 -12 0 -18 12 -18 10 0 18 -7 18 -15 0 -8 -2 -13
-5 -10 -3 2 -13 0 -23 -6 -23 -12 -25 -39 -4 -39 8 0 15 -4 15 -10 0 -5 -4
-10 -10 -10 -17 0 -11 -37 8 -45 14 -6 12 -9 -13 -17 -16 -5 -48 -9 -70 -9
-68 0 -95 -9 -95 -30 0 -17 -3 -18 -20 -9 -11 6 -20 7 -21 3 0 -4 -4 1 -9 12
-7 17 -9 17 -9 3 -1 -11 -9 -18 -21 -18 -12 0 -20 -7 -20 -16 0 -13 9 -15 51
-12 48 3 51 2 56 -24 4 -21 11 -28 28 -28 20 0 42 -26 32 -36 -2 -2 -60 -7
-128 -10 -68 -4 -125 -7 -126 -8 0 0 -3 -12 -5 -26 -3 -24 -1 -25 61 -28 54
-3 63 -1 58 12 -8 21 2 20 24 0 18 -17 55 -12 44 5 -3 5 -1 12 5 16 5 3 10 -3
10 -14 0 -16 6 -19 38 -16 20 2 53 6 72 11 l35 7 -34 -32 -35 -32 -300 -1
c-166 0 -330 -3 -366 -8 -40 -4 74 -8 303 -9 321 -1 368 -3 374 -16 3 -9 4
-18 2 -20 -2 -2 -185 -5 -407 -7 l-402 -3 0 26 c0 18 -8 29 -24 37 -14 6 -30
21 -37 34 -12 22 -11 23 8 6 48 -43 23 -11 -51 65 -85 86 -176 211 -237 325
-20 37 -41 66 -48 64 -6 -1 -11 10 -11 24 0 14 -5 35 -12 47 -6 12 -13 33 -14
46 -2 13 -8 29 -15 35 -9 8 -10 -17 -4 -109 3 -66 6 -133 6 -149 -1 -16 4 -33
11 -38 8 -5 9 -11 3 -15 -6 -5 -7 -25 -4 -48 3 -22 7 -30 8 -17 0 12 5 22 10
22 13 0 24 -34 12 -38 -6 -2 -11 -10 -11 -18 0 -8 -4 -14 -9 -14 -5 0 -8 -14
-6 -32 2 -22 9 -34 24 -39 23 -9 27 -24 10 -35 -6 -3 -15 0 -20 7 -5 9 -9 -11
-9 -53 0 -69 13 -95 17 -36 2 18 7 34 13 36 6 2 7 8 4 13 -3 6 -1 16 5 23 11
13 10 98 -4 301 l-4 70 13 -45 c25 -82 35 -154 41 -276 3 -74 13 -149 26 -194
11 -40 19 -94 17 -119 l-3 -46 -50 -12 -50 -11 55 -1 c51 -1 80 -13 80 -33 0
-4 -21 -8 -47 -8 -82 0 -123 -11 -123 -30 0 -14 7 -18 33 -16 17 2 54 4 80 5
29 0 46 5 42 11 -3 6 -2 10 4 10 5 0 17 8 27 17 15 16 60 17 573 14 316 -1
572 -6 593 -12 24 -6 45 -21 59 -42 12 -17 16 -26 9 -19 -11 9 -134 12 -544
12 -291 0 -527 -2 -525 -5 3 -2 223 -6 489 -8 476 -4 548 -9 566 -38 11 -18
-4 -22 -98 -29 -101 -7 -100 -12 4 -28 37 -5 82 -18 100 -27 52 -27 108 -35
149 -21 19 7 51 11 70 8 28 -3 38 -10 46 -33 12 -31 18 -32 138 -32 l40 0 3
76 c2 66 1 76 -13 71 -21 -9 -87 5 -80 17 4 5 23 9 43 9 l37 0 -3 70 c-3 65
-5 70 -26 70 -12 0 -27 5 -34 12 -9 9 -12 -5 -12 -63 -1 -63 -3 -71 -14 -57
-7 10 -16 61 -19 121 -4 58 -10 114 -14 125 -10 26 -4 122 7 122 19 0 39 -32
45 -72 15 -94 25 -118 48 -118 25 0 62 -36 47 -45 -18 -11 -10 -25 13 -22 21
2 22 -1 25 -93 4 -139 -10 -306 -26 -303 -8 2 -12 -10 -12 -32 0 -45 22 -54
140 -62 106 -6 145 6 136 42 -8 32 11 33 49 3 l28 -21 -6 -146 c-5 -158 -11
-188 -33 -170 -31 26 -41 -31 -11 -69 14 -18 0 -27 -18 -12 -27 22 -30 1 -7
-45 l22 -45 77 -1 c116 -2 266 2 275 7 5 3 8 14 8 25 0 14 7 19 26 19 21 0 24
-4 19 -20 -5 -14 -2 -20 9 -20 9 0 16 6 16 14 0 20 -39 46 -57 39 -12 -5 -14
-1 -8 15 4 14 2 22 -6 22 -9 0 -9 3 0 14 8 10 9 16 1 21 -5 3 -10 18 -10 33
-1 86 -8 448 -10 452 -6 14 -4 36 4 48 5 7 4 12 -2 12 -5 0 -8 9 -5 20 6 21
62 38 84 24 8 -4 10 -3 5 4 -4 7 -15 12 -25 12 -10 0 -32 5 -50 11 -24 8 -31
16 -26 28 12 29 12 46 1 54 -8 6 -8 10 1 13 9 4 10 10 1 24 -9 14 -9 22 1 34
8 9 9 16 4 16 -11 0 -10 61 1 78 3 6 2 14 -4 17 -6 4 -9 34 -8 68 1 34 -1 68
-5 75 -5 7 -3 12 3 12 6 0 8 5 4 12 -4 7 -9 179 -11 383 -2 203 -4 417 -5 475
-2 205 -2 208 30 213 l27 4 -27 2 c-16 0 -29 4 -29 9 -5 25 -4 64 1 67 3 2 4
44 3 94 -1 76 1 91 15 94 16 4 16 5 0 6 -14 1 -16 11 -14 61 2 33 9 66 16 75
8 9 8 15 2 15 -6 0 -10 9 -9 20 1 11 5 20 10 20 5 0 4 6 -2 14 -9 11 -9 16 1
22 8 5 3 12 -17 20 l-30 13 39 1 c34 0 37 2 25 16 -11 14 -10 18 5 30 17 12
17 14 3 20 -9 3 -14 10 -11 16 3 5 12 7 20 4 8 -3 14 1 14 8 0 8 -5 16 -11 18
-7 2 -13 19 -16 38 -2 19 -5 44 -7 55 -2 11 -4 27 -5 35 -1 12 -5 11 -16 -4
-22 -29 -39 -8 -25 29 12 33 8 39 -28 40 -15 0 -32 4 -39 8 -17 11 -5 37 17
37 45 0 45 -1 43 223 -1 118 -7 232 -13 257 -6 25 -11 55 -11 68 1 15 -3 21
-11 16 -8 -5 -9 -2 -5 10 4 10 7 23 7 29 1 22 28 -38 45 -100 l18 -63 53 0
c29 0 56 5 59 10 3 6 0 10 -7 10 -10 0 -10 2 1 9 8 5 21 7 28 4 11 -4 12 -8 3
-13 -7 -4 -8 -10 -3 -13 14 -9 83 12 83 25 0 6 -7 7 -17 3 -39 -15 -46 -15
-16 1 25 13 34 26 39 53 3 20 11 60 18 89 l13 52 -531 0 c-366 -1 -526 -4
-513 -11 9 -5 17 -17 17 -24 0 -8 7 -15 16 -15 9 0 12 -5 8 -12 -6 -10 -4 -10
7 0 7 6 22 12 33 12 20 0 20 0 0 15 -23 17 -14 19 21 3 25 -11 34 -28 15 -28
-5 0 -10 -5 -10 -11 0 -5 5 -7 10 -4 6 3 10 2 10 -4 0 -16 73 -81 91 -81 9 0
19 -7 23 -15 3 -8 12 -15 20 -15 8 0 16 -7 18 -15 7 -34 84 -125 111 -131 15
-3 25 -9 22 -14 -3 -4 2 -13 10 -20 8 -7 15 -19 15 -26 0 -8 5 -13 11 -12 6 2
13 -5 14 -14 2 -10 12 -30 23 -45 15 -22 19 -39 15 -73 -3 -25 -10 -51 -15
-57 -6 -7 -7 -13 -4 -13 4 0 -2 -10 -14 -22 -11 -12 -20 -29 -20 -39 0 -9 -7
-19 -15 -23 -8 -3 -15 -16 -16 -28 0 -21 -59 -81 -59 -61 -1 4 -12 22 -26 38
-26 30 -26 30 -21 5 2 -14 8 -34 12 -45 5 -16 5 -17 -4 -5 -5 8 -13 12 -16 8
-3 -3 1 -13 10 -21 8 -9 15 -21 15 -28 0 -11 -30 29 -155 205 -78 109 -173
210 -262 278 -29 22 -53 44 -53 49 0 5 -17 18 -37 29 -39 21 -158 100 -182
121 -20 18 -219 71 -316 85 -73 10 -397 12 -418 2 -12 -6 -19 -4 -23 6 -3 8
-12 12 -20 9 -26 -10 -14 6 16 22 17 9 45 13 70 11 22 -2 43 0 46 5 8 13 -316
8 -343 -5z m2077 -26 c0 -5 -4 -10 -10 -10 -5 0 -10 5 -10 10 0 6 5 10 10 10
6 0 10 -4 10 -10z m-2044 -57 c-2 -10 -11 -20 -20 -21 -15 -3 -16 -1 -6 17 13
26 29 28 26 4z m-46 -3 c0 -5 -2 -10 -4 -10 -3 0 -8 5 -11 10 -3 6 -1 10 4 10
6 0 11 -4 11 -10z m-23 -25 c0 -8 -4 -15 -8 -15 -11 0 -20 16 -12 24 11 11 20
7 20 -9z m1078 -115 c3 -6 -1 -7 -9 -4 -18 7 -21 14 -7 14 6 0 13 -4 16 -10z
m40 -20 c3 -5 2 -10 -4 -10 -5 0 -13 5 -16 10 -3 6 -2 10 4 10 5 0 13 -4 16
-10z m50 -30 c10 -11 16 -20 13 -20 -3 0 -15 9 -28 20 -13 11 -19 20 -13 20 5
0 18 -9 28 -20z m219 -172 c89 -79 259 -301 286 -374 14 -38 6 -28 -75 86
-104 145 -176 229 -272 320 -64 61 -75 74 -41 50 26 -18 72 -55 102 -82z m676
-218 c0 -5 -2 -10 -4 -10 -3 0 -8 5 -11 10 -3 6 -1 10 4 10 6 0 11 -4 11 -10z
m80 -81 c0 -5 -4 -9 -10 -9 -5 0 -10 7 -10 16 0 8 5 12 10 9 6 -3 10 -10 10
-16z m-1330 -79 c11 -7 5 -8 -20 -4 -43 8 -51 14 -19 14 13 0 31 -5 39 -10z
m1360 -44 c0 -3 -4 -8 -10 -11 -5 -3 -10 -1 -10 4 0 6 5 11 10 11 6 0 10 -2
10 -4z m-1545 -64 c-3 -3 -11 0 -18 7 -9 10 -8 11 6 5 10 -3 15 -9 12 -12z
m102 6 c18 1 33 -3 33 -8 0 -11 -33 -13 -80 -4 -21 5 -27 9 -19 15 7 4 17 5
23 2 5 -3 24 -6 43 -5z m-234 -105 c-7 -2 -21 -2 -30 0 -10 3 -4 5 12 5 17 0
24 -2 18 -5z m1357 -2 c0 -5 -10 -16 -22 -24 l-23 -16 23 0 c21 -1 33 -21 12
-21 -5 0 -10 -5 -10 -11 0 -6 7 -9 15 -5 18 7 20 -5 3 -23 -11 -11 -10 -13 4
-8 37 13 43 -13 40 -156 -3 -111 -6 -137 -18 -137 -7 0 -14 -4 -14 -10 0 -5 7
-10 15 -10 22 0 19 -47 -3 -54 -12 -4 -18 -17 -19 -43 0 -21 -2 -45 -4 -53 -2
-8 6 -19 18 -24 12 -6 24 -20 27 -32 10 -40 5 -993 -5 -1000 -7 -4 -9 96 -6
288 5 349 0 511 -17 505 -6 -2 -11 -17 -11 -33 0 -22 -5 -29 -20 -29 -22 0
-23 3 -25 150 0 50 4 111 8 138 10 52 4 137 -9 137 -5 0 -9 7 -9 15 0 10 -10
15 -30 15 -20 0 -30 5 -30 15 0 9 10 15 26 15 14 0 23 4 19 10 -3 5 -12 7 -20
4 -9 -4 -18 1 -22 12 -4 10 -2 19 4 21 7 3 6 20 -5 53 -16 49 -25 59 -37 40
-9 -15 -25 -12 -25 4 0 8 -6 16 -12 18 -7 3 9 5 36 6 27 1 52 4 54 7 2 2 4 57
3 122 l-2 119 46 2 c25 1 45 -2 45 -7z m-1490 -11 c0 -5 -8 -10 -17 -10 -15 0
-16 2 -3 10 19 12 20 12 20 0z m57 4 c-3 -3 -12 -4 -19 -1 -8 3 -5 6 6 6 11 1
17 -2 13 -5z m1163 -74 c6 -11 8 -20 6 -20 -3 0 -10 9 -16 20 -6 11 -8 20 -6
20 3 0 10 -9 16 -20z m458 -1040 c-1 -547 -4 -1031 -7 -1075 -7 -100 -17 1137
-13 1690 2 265 6 405 12 395 6 -9 9 -394 8 -1010z m-460 774 c4 2 8 -17 9 -42
2 -55 -12 -39 -21 23 -3 22 -3 34 0 27 3 -6 9 -10 12 -8z m-2171 -50 c-3 -3
-12 -4 -19 -1 -8 3 -5 6 6 6 11 1 17 -2 13 -5z m2279 -993 c-3 -431 -8 -786
-11 -789 -3 -3 -5 242 -5 544 0 302 -1 605 -1 674 -1 69 0 213 1 320 2 178 3
188 12 115 5 -47 7 -407 4 -864z m147 454 c-3 -8 0 -15 6 -15 6 0 11 -4 11
-10 0 -5 -8 -10 -18 -10 -15 0 -18 6 -14 30 2 16 8 27 13 25 4 -3 6 -12 2 -20z
m22 -84 c3 -5 1 -13 -5 -16 -15 -9 -43 3 -35 15 8 13 32 13 40 1z m0 -61 c-3
-5 -15 -10 -26 -10 -10 0 -19 5 -19 10 0 6 12 10 26 10 14 0 23 -4 19 -10z m5
-50 c0 -5 -11 -10 -25 -10 -14 0 -25 5 -25 10 0 6 11 10 25 10 14 0 25 -4 25
-10z m-2 -58 c2 -7 -7 -12 -22 -12 -16 0 -26 6 -26 15 0 18 42 15 48 -3z m-33
-42 c3 -5 1 -10 -4 -10 -6 0 -11 5 -11 10 0 6 2 10 4 10 3 0 8 -4 11 -10z
m-2018 -150 c3 -55 9 -100 13 -100 4 0 6 46 5 103 -2 98 -2 101 11 62 17 -48
16 -346 -1 -352 -14 -4 -33 89 -40 192 -13 199 -14 230 -4 213 5 -10 13 -63
16 -118z m2053 105 c0 -9 -9 -15 -25 -15 -24 0 -32 10 -18 23 12 13 43 7 43
-8z m-932 -76 c47 -2 52 -4 52 -26 0 -26 -20 -32 -21 -5 0 14 -2 14 -9 -3 -6
-15 -9 -16 -9 -4 -1 9 -8 16 -16 16 -8 0 -12 -4 -9 -8 6 -11 -29 -29 -55 -29
-17 0 -21 6 -21 36 0 29 3 34 18 30 9 -3 41 -6 70 -7z m937 -8 c0 -8 -10 -16
-22 -17 -18 -3 -23 1 -23 17 0 15 5 20 23 17 12 -2 22 -9 22 -17z m-841 1 c2
-4 -4 -9 -15 -9 -11 -1 -17 2 -14 8 7 11 22 12 29 1z m-1134 -157 c0 -125 -7
-195 -20 -195 -4 0 -6 66 -4 148 2 81 4 158 4 172 0 20 2 22 10 10 5 -8 10
-69 10 -135z m1970 90 c0 -3 -9 -5 -20 -5 -11 0 -20 7 -20 15 0 13 4 14 20 5
11 -6 20 -13 20 -15z m-2140 11 c0 -3 -4 -8 -10 -11 -5 -3 -10 -1 -10 4 0 6 5
11 10 11 6 0 10 -2 10 -4z m1348 -16 c-7 -11 -17 -20 -22 -20 -5 0 -1 9 9 20
10 11 20 20 22 20 2 0 -2 -9 -9 -20z m-1131 -92 c-4 -46 -7 -104 -7 -130 0
-27 -5 -48 -11 -48 -7 0 -9 41 -6 128 6 147 4 132 18 132 9 0 10 -23 6 -82z
m1033 56 c0 -8 -4 -14 -10 -14 -5 0 -10 9 -10 21 0 11 5 17 10 14 6 -3 10 -13
10 -21z m-36 1 c4 -10 -1 -15 -14 -15 -11 0 -20 7 -20 15 0 8 6 15 14 15 8 0
16 -7 20 -15z m926 6 c0 -11 -26 -22 -34 -14 -12 12 -5 23 14 23 11 0 20 -4
20 -9z m-845 -31 c-16 -16 -33 -30 -38 -30 -12 0 44 58 57 59 6 1 -3 -12 -19
-29z m-1022 -12 c4 -12 -8 -143 -17 -178 -2 -8 -4 31 -5 88 -1 90 8 126 22 90z
m1427 2 c0 -5 -7 -7 -15 -4 -8 4 -15 8 -15 10 0 2 7 4 15 4 8 0 15 -4 15 -10z
m435 1 c7 -12 -12 -24 -25 -16 -11 7 -4 25 10 25 5 0 11 -4 15 -9z m-485 -68
c-5 -26 -7 -60 -5 -75 2 -16 -1 -30 -6 -34 -10 -6 -12 20 -9 101 2 53 7 68 19
60 5 -2 5 -26 1 -52z m476 1 c-5 -13 -10 -14 -18 -6 -6 6 -8 18 -4 28 5 13 10
14 18 6 6 -6 8 -18 4 -28z m-1813 -70 l-7 -49 -7 35 c-9 40 -1 86 12 73 5 -5
6 -31 2 -59z m1813 10 c-4 -10 1 -25 11 -36 16 -18 16 -21 2 -32 -15 -10 -18
-47 -9 -91 1 -5 2 -34 1 -62 -1 -58 -15 -73 -18 -20 -8 175 -7 239 1 247 15
15 19 12 12 -6z m-952 -49 c29 -5 46 -12 46 -21 0 -8 -1 -15 -2 -16 -2 -1
-190 -4 -418 -8 l-415 -6 420 -2 c416 -2 445 -4 445 -34 0 -4 -195 -9 -432 -9
-247 -1 -416 -5 -393 -9 22 -5 217 -8 432 -7 l393 2 22 -23 22 -22 -477 0
c-262 0 -477 1 -477 3 0 1 9 20 20 42 11 22 20 53 20 70 0 18 2 34 5 37 8 7
738 10 789 3z m996 -31 c0 -8 -4 -12 -10 -9 -5 3 -10 10 -10 16 0 5 5 9 10 9
6 0 10 -7 10 -16z m3 -104 c3 -11 2 -22 -3 -25 -4 -3 -10 6 -12 20 -6 30 7 34
15 5z m2 -50 c3 -5 1 -10 -4 -10 -6 0 -11 5 -11 10 0 6 2 10 4 10 3 0 8 -4 11
-10z m-1 -35 c3 -8 1 -15 -4 -15 -6 0 -10 7 -10 15 0 8 2 15 4 15 2 0 6 -7 10
-15z m-44 -35 c0 -5 -4 -10 -10 -10 -5 0 -10 5 -10 10 0 6 5 10 10 10 6 0 10
-4 10 -10z m45 -39 c0 -37 -10 -48 -13 -15 -2 22 4 44 11 44 1 0 2 -13 2 -29z
m-547 1 c3 -10 -12 -13 -67 -11 -65 2 -80 7 -66 21 12 12 128 3 133 -10z m503
1 c1 -10 3 -34 4 -53 4 -81 5 -90 15 -90 6 0 11 15 12 33 l1 32 4 -33 c5 -34
-26 -86 -43 -74 -12 9 -14 202 -3 202 5 0 10 -8 10 -17z m176 -355 c-3 -8 -6
-5 -6 6 -1 11 2 17 5 13 3 -3 4 -12 1 -19z"/>
<path d="M3780 2575 c0 -8 2 -15 4 -15 2 0 6 7 10 15 3 8 1 15 -4 15 -6 0 -10
-7 -10 -15z"/>
<path d="M1862 1240 c0 -19 2 -27 5 -17 2 9 2 25 0 35 -3 9 -5 1 -5 -18z"/>
<path d="M4662 3879 c-1 -26 -8 -49 -20 -63 -40 -44 -63 -94 -56 -120 5 -22
-7 -41 -87 -135 -116 -135 -169 -201 -169 -213 0 -5 7 -11 15 -14 8 -4 15 -12
15 -20 0 -8 4 -14 8 -14 5 0 14 -11 21 -24 11 -20 10 -28 -4 -50 -10 -14 -13
-26 -7 -26 6 0 13 4 17 10 3 5 22 -9 42 -31 22 -24 42 -38 50 -34 9 3 13 0 10
-7 -2 -7 5 -26 16 -42 l20 -29 -124 -119 c-87 -83 -110 -110 -77 -88 27 18 65
32 92 36 l46 5 1 -33 c0 -18 2 -44 3 -58 4 -32 -12 -81 -34 -101 -21 -21 -80
-35 -80 -20 0 6 -7 11 -16 11 -15 0 -15 -2 1 -26 9 -14 14 -29 10 -32 -4 -4
-11 1 -16 11 -13 23 -29 22 -29 -3 0 -11 -6 -20 -12 -20 -8 0 -9 -3 -3 -8 10
-7 11 -10 14 -62 l1 -30 103 3 c90 3 112 7 169 34 l66 31 1 267 c0 147 3 270
6 273 3 3 5 -457 5 -1023 0 -566 -3 -1026 -6 -1023 -6 7 -11 249 -13 686 -1
205 -4 311 -11 307 -20 -12 -176 -55 -202 -55 -26 0 -28 -3 -28 -40 l0 -40
-40 0 c-29 0 -40 -4 -40 -15 0 -10 11 -15 35 -15 28 0 35 -4 35 -20 0 -16 -7
-20 -35 -20 -24 0 -35 -5 -35 -15 0 -16 43 -31 59 -20 7 4 11 -4 11 -19 0 -23
-4 -26 -34 -26 -60 0 -56 -33 4 -39 42 -4 42 -4 34 -25 -4 -11 -18 -16 -46
-16 -52 0 -46 -23 8 -30 34 -4 39 -8 36 -27 -2 -13 2 -23 7 -23 6 0 11 9 11
20 0 15 7 20 25 20 20 0 25 -5 25 -25 0 -23 -3 -24 -72 -27 -46 -2 -73 -7 -76
-15 -2 -9 9 -13 36 -13 38 0 40 -2 38 -27 -3 -23 -8 -27 -34 -27 -60 -1 -32
-21 33 -24 62 -3 65 -4 65 -28 0 -24 -2 -24 -65 -22 -62 3 -65 2 -65 -19 0
-18 6 -23 28 -23 15 0 33 -4 41 -9 8 -6 24 -6 38 0 21 8 23 6 23 -20 0 -25 -3
-28 -25 -23 -14 2 -25 11 -25 18 0 8 -9 14 -20 14 -25 0 -26 -17 -2 -23 9 -3
1 -5 -19 -6 -42 -1 -48 -6 -42 -32 5 -16 14 -19 69 -19 l64 0 0 -30 c0 -25 -4
-30 -24 -30 -18 0 -26 7 -29 22 -4 23 -4 23 -6 1 -1 -18 -8 -22 -38 -25 -47
-4 -50 -22 -5 -26 28 -3 32 -7 32 -31 0 -26 -3 -28 -30 -25 -24 3 -30 0 -30
-16 0 -18 7 -20 60 -20 47 0 60 -3 60 -15 0 -12 -13 -15 -60 -15 -47 0 -60 -3
-60 -15 0 -12 13 -15 60 -15 52 0 60 -2 60 -19 0 -11 3 -27 7 -37 5 -14 2 -16
-20 -12 -15 3 -27 1 -27 -4 0 -5 -6 -8 -12 -7 -37 4 -68 -2 -68 -15 0 -11 22
-16 85 -21 47 -4 83 -10 80 -13 -9 -10 -97 -31 -127 -32 -34 0 -37 -24 -5 -42
l22 -12 -25 -6 c-23 -5 -26 -14 -21 -49 0 -4 20 -11 44 -14 23 -4 57 -9 75
-13 l32 -6 0 42 0 43 50 -6 c75 -9 86 -18 60 -47 -17 -19 -23 -21 -29 -11 -10
15 -13 6 -26 -56 -3 -17 -13 -34 -20 -37 -9 -3 -12 -12 -8 -22 5 -13 3 -16
-10 -11 -13 5 -17 0 -18 -21 -1 -15 0 -33 1 -41 1 -11 -8 -13 -39 -8 -23 3
-41 4 -41 2 0 -2 30 -27 68 -56 127 -99 182 -160 153 -171 -5 -2 -13 -62 -17
-134 -5 -107 -4 -133 7 -140 8 -5 76 -10 152 -12 l137 -4 0 1003 c-1 552 1
1412 4 1912 l5 907 -124 0 -123 0 0 -41z m-118 -730 c-6 -11 -24 -2 -24 11 0
5 7 7 15 4 8 -4 12 -10 9 -15z m11 -324 c-27 -25 -44 -45 -37 -45 7 0 10 -4 7
-10 -11 -18 -35 -11 -35 10 0 13 18 32 53 55 28 19 54 34 57 34 3 0 -17 -20
-45 -44z m40 -50 c-56 -38 -58 -39 -48 -20 6 10 9 25 8 34 -1 9 0 10 2 4 10
-30 52 -5 54 32 1 17 2 16 8 -5 6 -20 1 -28 -24 -45z m-65 -39 c0 -3 -4 -8
-10 -11 -5 -3 -10 -1 -10 4 0 6 5 11 10 11 6 0 10 -2 10 -4z m-72 -771 c-1 -1
-13 -6 -25 -9 -19 -6 -23 -3 -23 13 0 23 43 34 48 13 2 -8 2 -15 0 -17z m2
-65 c0 -15 -7 -20 -25 -20 -18 0 -25 5 -25 20 0 15 7 20 25 20 18 0 25 -5 25
-20z m0 -80 c0 -11 -4 -20 -9 -20 -5 0 -16 -3 -25 -6 -12 -5 -16 0 -16 20 0
21 5 26 25 26 18 0 25 -5 25 -20z m-7 -77 c-13 -37 -43 -38 -43 -2 0 14 7 19
25 19 19 0 23 -4 18 -17z m97 -14 c0 -16 -7 -19 -41 -19 -23 0 -38 4 -34 10 3
5 12 7 19 4 8 -3 17 -1 21 5 3 6 0 11 -7 12 -7 0 -4 4 7 8 25 11 35 5 35 -20z
m70 12 c0 -12 -9 -20 -24 -23 -19 -4 -25 0 -29 19 -4 20 0 23 24 23 22 0 29
-5 29 -19z m8 -186 c-2 -1 -51 -5 -110 -7 -108 -5 -108 -5 -108 19 0 14 6 23
15 23 8 0 15 -7 15 -15 0 -8 5 -15 11 -15 5 0 7 5 3 12 -4 6 -3 8 4 4 6 -3 13
-2 17 4 9 15 75 13 75 -2 0 -10 2 -10 8 -1 4 6 21 13 37 15 23 2 31 -1 33 -15
2 -10 2 -20 0 -22z m-185 -350 c-6 -17 -25 -15 -31 3 -2 7 5 12 17 12 14 0 19
-5 14 -15z m210 -215 c3 -11 1 -23 -4 -26 -5 -3 -9 6 -9 20 0 31 6 34 13 6z
m-1 -105 c3 -14 1 -28 -3 -31 -5 -3 -9 9 -9 25 0 38 6 40 12 6z m0 -85 c-2
-22 -6 -40 -8 -40 -2 0 -4 18 -4 40 0 22 3 40 8 40 4 0 6 -18 4 -40z m-5 -472
c-3 -8 -6 -5 -6 6 -1 11 2 17 5 13 3 -3 4 -12 1 -19z m0 -80 c-2 -13 -4 -5 -4
17 -1 22 1 32 4 23 2 -10 2 -28 0 -40z"/>
<path d="M2948 3853 c7 -3 16 -2 19 1 4 3 -2 6 -13 5 -11 0 -14 -3 -6 -6z"/>
<path d="M2986 3836 c3 -8 14 -16 25 -19 25 -7 24 -3 -6 17 -19 13 -23 13 -19
2z"/>
<path d="M4210 3670 c0 -5 9 -10 20 -10 11 0 20 5 20 10 0 6 -9 10 -20 10 -11
0 -20 -4 -20 -10z"/>
<path d="M4270 3670 c0 -5 6 -10 14 -10 8 0 18 5 21 10 3 6 -3 10 -14 10 -12
0 -21 -4 -21 -10z"/>
<path d="M4330 3670 c0 -5 4 -10 9 -10 6 0 13 5 16 10 3 6 -1 10 -9 10 -9 0
-16 -4 -16 -10z"/>
<path d="M4280 3640 c0 -5 4 -10 9 -10 6 0 13 5 16 10 3 6 -1 10 -9 10 -9 0
-16 -4 -16 -10z"/>
<path d="M4340 3640 c0 -5 5 -10 10 -10 6 0 10 5 10 10 0 6 -4 10 -10 10 -5 0
-10 -4 -10 -10z"/>
<path d="M4218 3633 c6 -2 18 -2 25 0 6 3 1 5 -13 5 -14 0 -19 -2 -12 -5z"/>
<path d="M4335 3610 c-3 -5 -1 -10 4 -10 6 0 11 5 11 10 0 6 -2 10 -4 10 -3 0
-8 -4 -11 -10z"/>
<path d="M590 3601 c0 -6 4 -13 10 -16 6 -3 7 1 4 9 -7 18 -14 21 -14 7z"/>
<path d="M4238 3603 c7 -3 16 -2 19 1 4 3 -2 6 -13 5 -11 0 -14 -3 -6 -6z"/>
<path d="M624 3581 c0 -11 4 -17 9 -14 12 7 47 -27 47 -47 0 -10 7 -23 15 -30
8 -7 15 -10 15 -8 0 15 -33 67 -57 91 -25 24 -29 24 -29 8z"/>
<path d="M4290 3569 c0 -5 5 -7 10 -4 6 3 10 8 10 11 0 2 -4 4 -10 4 -5 0 -10
-5 -10 -11z"/>
<path d="M1705 3510 c-26 -29 -15 -32 15 -4 13 13 20 24 14 24 -6 0 -19 -9
-29 -20z"/>
<path d="M666 3291 c-8 -13 3 -38 20 -45 9 -3 14 1 14 13 0 22 -26 46 -34 32z"/>
<path d="M4213 3202 c-8 -5 -9 -13 -3 -22 7 -12 10 -12 16 3 8 21 3 29 -13 19z"/>
<path d="M4262 3180 c0 -14 2 -19 5 -12 2 6 2 18 0 25 -3 6 -5 1 -5 -13z"/>
<path d="M4295 3180 c3 -5 8 -10 11 -10 2 0 4 5 4 10 0 6 -5 10 -11 10 -5 0
-7 -4 -4 -10z"/>
<path d="M4420 3165 c7 -9 15 -13 17 -11 7 7 -7 26 -19 26 -6 0 -6 -6 2 -15z"/>
<path d="M3415 3140 c10 -11 20 -18 23 -16 5 6 -23 36 -34 36 -4 0 1 -9 11
-20z"/>
<path d="M4248 3085 c2 -14 6 -25 8 -25 2 0 4 11 4 25 0 14 -4 25 -9 25 -4 0
-6 -11 -3 -25z"/>
<path d="M700 3046 c0 -8 5 -18 10 -21 6 -3 10 3 10 14 0 12 -4 21 -10 21 -5
0 -10 -6 -10 -14z"/>
<path d="M1260 2997 c0 -3 17 -17 38 -33 30 -23 33 -24 17 -5 -19 22 -55 46
-55 38z"/>
<path d="M830 2930 c0 -5 9 -10 21 -10 11 0 17 5 14 10 -3 6 -13 10 -21 10 -8
0 -14 -4 -14 -10z"/>
<path d="M1250 2921 c0 -5 5 -13 10 -16 6 -3 10 -2 10 4 0 5 -4 13 -10 16 -5
3 -10 2 -10 -4z"/>
<path d="M440 2744 c0 -108 3 -144 13 -144 6 0 37 -16 67 -35 30 -19 58 -35
62 -35 4 0 8 56 8 123 l0 124 -75 56 -75 56 0 -145z m87 20 c24 -20 42 -38 40
-40 -9 -9 -92 42 -95 59 -5 25 6 21 55 -19z m-29 -71 c38 -23 72 -55 72 -66 0
-5 -12 -1 -27 9 -16 10 -40 24 -55 32 -16 7 -28 20 -28 28 0 18 5 18 38 -3z"/>
<path d="M1711 2739 c-30 -54 -20 -62 13 -10 28 44 30 51 18 51 -5 0 -19 -18
-31 -41z"/>
<path d="M2405 2745 c-150 -30 -290 -87 -355 -145 l-35 -31 32 16 c36 17 57
20 49 6 -4 -5 29 6 73 24 282 119 567 119 811 1 38 -19 88 -49 110 -66 22 -17
44 -29 50 -25 5 3 10 3 10 -2 0 -4 14 -16 30 -25 64 -37 14 38 -65 97 -161
120 -307 165 -525 164 -69 -1 -152 -7 -185 -14z"/>
<path d="M2530 2668 c-106 -9 -207 -31 -284 -63 -62 -25 -156 -84 -156 -98 0
-5 10 -1 22 7 12 9 32 16 44 16 12 0 48 12 80 26 94 41 200 64 329 70 107 5
130 3 219 -20 54 -14 119 -36 145 -49 65 -33 115 -61 121 -67 25 -24 61 -51
51 -37 -8 9 -11 20 -8 23 9 9 27 -5 27 -22 0 -8 5 -14 10 -14 19 0 -7 36 -57
80 -92 80 -256 142 -408 152 -27 2 -88 0 -135 -4z"/>
<path d="M2555 2593 c-121 -14 -245 -47 -323 -87 -50 -25 -73 -46 -52 -46 6 0
43 12 83 26 242 85 487 85 657 -1 28 -14 55 -23 60 -20 4 3 10 -1 12 -9 2 -12
6 -12 21 -2 16 12 14 16 -24 40 -105 70 -303 115 -434 99z"/>
<path d="M840 2580 c0 -5 5 -10 10 -10 6 0 10 5 10 10 0 6 -4 10 -10 10 -5 0
-10 -4 -10 -10z"/>
<path d="M440 2432 l0 -149 58 -26 c31 -14 69 -30 85 -36 l27 -11 0 140 0 139
-56 25 c-30 14 -68 35 -85 46 l-29 21 0 -149z"/>
<path d="M4550 2536 c-49 -25 -107 -47 -135 -51 -109 -14 -102 -9 -107 -78 -3
-34 -3 -67 -1 -72 2 -6 33 -9 78 -7 l75 4 0 -61 c0 -40 4 -61 12 -61 6 0 40
12 76 26 35 14 66 23 68 21 3 -2 -21 -14 -53 -26 -82 -31 -89 -38 -97 -104 -9
-66 -10 -65 77 -42 32 8 67 15 77 15 19 0 20 8 22 138 1 75 2 183 3 240 1 56
-1 102 -4 102 -3 0 -44 -20 -91 -44z"/>
<path d="M1860 2550 c0 -5 7 -7 15 -4 8 4 15 8 15 10 0 2 -7 4 -15 4 -8 0 -15
-4 -15 -10z"/>
<path d="M2516 2509 c-83 -12 -168 -35 -226 -60 -52 -23 -63 -35 -31 -35 11 0
17 4 15 8 -5 8 46 22 116 33 25 4 50 11 55 15 32 24 218 28 325 6 115 -24 121
-26 116 -35 -3 -4 6 -6 21 -3 26 5 26 5 -10 24 -81 41 -270 65 -381 47z"/>
<path d="M3028 2443 c7 -3 16 -2 19 1 4 3 -2 6 -13 5 -11 0 -14 -3 -6 -6z"/>
<path d="M4268 2353 c7 -3 16 -2 19 1 4 3 -2 6 -13 5 -11 0 -14 -3 -6 -6z"/>
<path d="M1532 2268 c3 -7 15 -14 29 -16 23 -2 23 -2 5 13 -24 18 -39 20 -34
3z"/>
<path d="M440 2181 l0 -78 75 -16 c42 -10 80 -17 86 -17 6 0 9 22 7 56 l-3 55
-82 39 -83 39 0 -78z"/>
<path d="M1532 1684 c4 -560 4 -563 41 -564 4 0 7 247 7 549 -1 580 1 561 -42
561 -7 0 -9 -170 -6 -546z"/>
<path d="M660 2130 c6 -11 20 -20 30 -20 28 0 25 19 -6 30 -35 14 -36 13 -24
-10z"/>
<path d="M1614 2116 c-4 -11 1 -222 6 -271 1 -5 1 -50 1 -100 -1 -226 3 -270
22 -267 9 2 17 -2 17 -8 0 -5 -7 -10 -16 -10 -11 0 -14 -8 -12 -27 2 -19 8
-27 19 -25 15 2 25 -35 43 -158 2 -18 4 -15 5 10 0 19 -4 64 -10 100 -6 36
-13 76 -15 90 -2 14 -7 168 -10 343 -7 295 -9 319 -26 328 -14 7 -20 6 -24 -5z"/>
<path d="M440 1785 c0 -258 2 -287 16 -281 9 3 24 6 34 6 14 0 20 9 23 33 l4
32 1 -32 c3 -47 32 -45 32 2 0 43 16 47 22 6 2 -17 1 -28 -4 -25 -4 3 -8 0 -8
-5 0 -6 11 -11 25 -11 18 0 25 5 25 20 0 11 -7 20 -15 20 -8 0 -15 5 -15 11 0
6 6 9 14 6 10 -4 15 4 18 24 3 16 2 31 0 34 -3 3 -38 5 -79 5 -65 0 -73 2 -73
19 0 12 9 20 25 23 17 4 25 1 25 -8 0 -17 36 -18 44 -1 5 10 7 10 12 0 3 -7
14 -13 25 -13 25 0 26 57 2 77 -10 8 -13 12 -6 9 6 -4 15 -1 18 4 7 11 7 281
1 288 -2 2 -33 10 -67 18 -35 8 -72 17 -81 20 -17 5 -18 -13 -18 -281z m55
205 c12 0 29 -8 36 -17 13 -15 11 -16 -11 -10 -14 4 -33 7 -42 7 -12 0 -18 7
-17 23 0 12 3 16 6 10 2 -7 15 -13 28 -13z m33 -76 c40 -11 26 -34 -21 -34
-48 0 -58 5 -50 26 5 15 33 18 71 8z m62 -24 c0 -5 -2 -10 -4 -10 -3 0 -8 5
-11 10 -3 6 -1 10 4 10 6 0 11 -4 11 -10z m-53 -62 c48 -18 40 -28 -22 -28
-30 0 -55 2 -55 4 0 2 -3 11 -6 20 -8 20 34 22 83 4z m-21 -89 c10 -17 -12
-32 -35 -24 -29 9 -27 35 3 35 14 0 28 -5 32 -11z m52 -12 c2 -10 -3 -17 -12
-17 -18 0 -29 16 -21 31 9 14 29 6 33 -14z m-85 -186 l-6 -25 -9 23 c-9 25 -1
48 13 34 5 -5 6 -19 2 -32z"/>
<path d="M4335 2022 c-13 -13 -2 -22 26 -22 19 0 29 4 27 12 -4 12 -44 19 -53
10z"/>
<path d="M3315 1920 c-3 -5 1 -10 10 -10 9 0 13 5 10 10 -3 6 -8 10 -10 10 -2
0 -7 -4 -10 -10z"/>
<path d="M3275 1861 c-7 -12 12 -24 25 -16 11 7 4 25 -10 25 -5 0 -11 -4 -15
-9z"/>
<path d="M2753 1843 c9 -2 17 -8 17 -11 0 -4 11 -7 25 -7 14 0 25 6 25 13 0 8
-15 12 -42 11 -24 -1 -35 -3 -25 -6z"/>
<path d="M3007 1823 c-14 -13 -7 -33 11 -33 26 0 34 11 21 27 -13 14 -22 16
-32 6z"/>
<path d="M3130 1826 c0 -2 7 -9 15 -16 12 -10 15 -10 15 4 0 9 -7 16 -15 16
-8 0 -15 -2 -15 -4z"/>
<path d="M3197 1823 c-10 -9 -9 -23 2 -23 5 0 11 7 15 15 5 15 -5 20 -17 8z"/>
<path d="M2968 1813 c7 -3 16 -2 19 1 4 3 -2 6 -13 5 -11 0 -14 -3 -6 -6z"/>
<path d="M3244 1789 c-3 -6 -1 -16 5 -22 9 -9 14 -8 21 3 5 8 10 18 10 23 0
11 -28 8 -36 -4z"/>
<path d="M1870 1770 c0 -6 7 -10 15 -10 8 0 15 2 15 4 0 2 -7 6 -15 10 -8 3
-15 1 -15 -4z"/>
<path d="M1930 1685 c-10 -12 -9 -16 5 -21 19 -8 40 9 31 25 -10 15 -21 14
-36 -4z"/>
<path d="M2057 1683 c-4 -3 -7 -11 -7 -17 0 -6 5 -5 12 2 6 6 9 14 7 17 -3 3
-9 2 -12 -2z"/>
<path d="M2086 1672 c-2 -4 4 -8 14 -8 10 0 16 4 14 8 -3 4 -9 8 -14 8 -5 0
-11 -4 -14 -8z"/>
<path d="M2345 1660 c-3 -6 1 -7 9 -4 18 7 21 14 7 14 -6 0 -13 -4 -16 -10z"/>
<path d="M2970 1656 c0 -9 5 -16 10 -16 6 0 10 4 10 9 0 6 -4 13 -10 16 -5 3
-10 -1 -10 -9z"/>
<path d="M2940 1649 c0 -5 5 -7 10 -4 6 3 10 8 10 11 0 2 -4 4 -10 4 -5 0 -10
-5 -10 -11z"/>
<path d="M2001 1624 c0 -11 3 -14 6 -6 3 7 2 16 -1 19 -3 4 -6 -2 -5 -13z"/>
<path d="M2930 1595 c0 -10 10 -14 35 -13 22 1 35 6 35 15 0 17 -37 17 -43 1
-4 -10 -6 -10 -6 0 -1 17 -21 15 -21 -3z"/>
<path d="M1996 1571 c-4 -7 -5 -15 -2 -18 9 -9 19 4 14 18 -4 11 -6 11 -12 0z"/>
<path d="M2060 1566 c0 -9 7 -12 20 -9 11 3 17 9 14 14 -8 14 -34 10 -34 -5z"/>
<path d="M2591 1534 c0 -11 3 -14 6 -6 3 7 2 16 -1 19 -3 4 -6 -2 -5 -13z"/>
<path d="M2750 1540 c0 -5 7 -10 16 -10 8 0 12 5 9 10 -3 6 -10 10 -16 10 -5
0 -9 -4 -9 -10z"/>
<path d="M2300 1515 c0 -18 5 -25 20 -25 11 0 20 7 20 16 0 8 -4 12 -10 9 -5
-3 -10 1 -10 9 0 9 -4 16 -10 16 -5 0 -10 -11 -10 -25z"/>
<path d="M2430 1515 c0 -21 5 -25 31 -25 24 0 30 4 27 18 -2 9 -11 16 -21 16
-9 -1 -17 2 -17 7 0 5 -4 9 -10 9 -5 0 -10 -11 -10 -25z"/>
<path d="M2500 1517 c0 -13 3 -26 6 -30 11 -11 34 5 34 23 0 11 9 20 23 23 12
2 3 5 -20 6 -39 1 -43 -1 -43 -22z"/>
<path d="M2680 1523 c0 -25 -15 -31 -23 -10 -3 7 -6 5 -6 -5 -1 -10 2 -18 7
-19 49 -5 72 -2 72 9 0 6 -7 12 -15 12 -7 0 -19 8 -24 18 -9 15 -10 15 -11 -5z"/>
<path d="M2020 1520 c0 -5 5 -10 10 -10 6 0 10 5 10 10 0 6 -4 10 -10 10 -5 0
-10 -4 -10 -10z"/>
<path d="M2062 1518 c5 -15 28 -23 28 -10 0 5 -7 13 -16 16 -10 4 -14 1 -12
-6z"/>
<path d="M2371 1514 c0 -11 3 -14 6 -6 3 7 2 16 -1 19 -3 4 -6 -2 -5 -13z"/>
<path d="M2610 1495 c0 -9 5 -15 11 -13 6 2 11 8 11 13 0 5 -5 11 -11 13 -6 2
-11 -4 -11 -13z"/>
<path d="M2070 1480 c0 -5 5 -10 10 -10 6 0 10 5 10 10 0 6 -4 10 -10 10 -5 0
-10 -4 -10 -10z"/>
<path d="M2590 1458 c0 -10 -39 -13 -163 -14 -97 0 -161 -4 -159 -10 2 -9 23
-11 130 -13 52 -1 70 -14 33 -24 -15 -4 -18 -11 -14 -27 4 -16 3 -21 -5 -16
-7 4 -12 16 -12 26 0 13 -7 18 -20 17 -16 -1 -20 -8 -20 -34 0 -33 0 -33 50
-33 l50 0 0 43 c0 24 2 46 4 48 3 2 39 2 81 -1 42 -3 78 -4 79 -2 2 1 1 14 -2
27 -4 25 -32 36 -32 13z"/>
<path d="M2708 1452 c-10 -2 -18 -7 -18 -12 0 -13 32 -21 45 -10 8 6 16 6 24
-3 10 -10 12 -8 9 7 -3 19 -25 26 -60 18z"/>
<path d="M2780 1445 c0 -10 8 -14 22 -12 32 5 35 27 4 27 -16 0 -26 -6 -26
-15z"/>
<path d="M2130 1438 c0 -10 16 -14 60 -15 33 0 60 3 60 8 0 5 -20 9 -44 9 -24
0 -51 3 -60 6 -10 4 -16 1 -16 -8z"/>
<path d="M2188 1375 c2 -14 10 -25 17 -25 18 0 28 32 13 42 -24 15 -35 9 -30
-17z"/>
<path d="M2257 1393 c-5 -9 10 -53 18 -53 3 0 5 14 5 30 0 28 -13 40 -23 23z"/>
<path d="M2310 1365 c0 -24 5 -35 15 -35 11 0 14 9 12 35 -3 47 -27 47 -27 0z"/>
<path d="M2543 1372 c-58 -3 -63 -5 -63 -25 0 -21 5 -23 75 -24 77 -2 90 6 63
38 -9 10 -31 13 -75 11z"/>
<path d="M1600 1237 c0 -57 -3 -152 -7 -210 l-6 -107 48 0 47 0 -6 85 c-3 47
-9 93 -14 103 -5 9 -13 38 -16 65 -4 26 -11 45 -17 42 -5 -4 -9 21 -9 59 0 37
-4 66 -10 66 -6 0 -10 -41 -10 -103z"/>
<path d="M2198 1333 c7 -3 16 -2 19 1 4 3 -2 6 -13 5 -11 0 -14 -3 -6 -6z"/>
<path d="M1755 1290 c-3 -5 -1 -10 4 -10 6 0 11 5 11 10 0 6 -2 10 -4 10 -3 0
-8 -4 -11 -10z"/>
<path d="M3488 1093 c6 -2 18 -2 25 0 6 3 1 5 -13 5 -14 0 -19 -2 -12 -5z"/>
<path d="M1543 1020 c4 -30 7 -65 7 -78 0 -13 4 -21 9 -17 17 10 11 122 -6
137 -15 12 -16 7 -10 -42z"/>
<path d="M1851 918 c-1 -13 -10 -18 -31 -19 -16 -1 -34 -3 -40 -4 -5 -1 -64
-3 -130 -4 l-120 -1 0 -70 0 -70 63 0 c34 0 67 4 74 8 6 4 13 29 15 56 l3 48
70 2 70 1 3 -33 c3 -28 7 -32 33 -32 27 0 30 3 23 23 -4 12 -8 31 -9 42 -2 29
-24 75 -24 53z"/>
<path d="M2708 873 c7 -3 16 -2 19 1 4 3 -2 6 -13 5 -11 0 -14 -3 -6 -6z"/>
<path d="M2753 874 c9 -9 167 -11 167 -2 0 4 -39 8 -87 8 -47 0 -84 -3 -80 -6z"/>
<path d="M1908 803 c6 -2 18 -2 25 0 6 3 1 5 -13 5 -14 0 -19 -2 -12 -5z"/>
<path d="M2077 713 c-4 -3 -7 -10 -7 -15 0 -4 212 -8 470 -8 277 0 470 4 470
9 0 14 -92 17 -517 19 -262 1 -384 -2 -389 -9 -5 -8 -9 -8 -13 0 -4 6 -10 8
-14 4z"/>
<path d="M720 660 c0 -6 -10 -8 -24 -4 -16 4 -25 1 -30 -12 -10 -26 2 -30 35
-11 17 9 38 17 47 17 15 0 15 2 2 10 -19 13 -30 13 -30 0z"/>
<path d="M3230 597 c-34 -10 -32 -11 51 -23 85 -12 135 -30 158 -58 7 -8 29
-17 51 -21 51 -9 71 -25 64 -51 -6 -22 -49 -49 -73 -45 -7 1 -10 -2 -6 -8 3
-6 20 -11 36 -11 30 0 30 0 27 -52 l-3 -53 -470 -5 c-258 -3 -465 -6 -460 -8
6 -1 6 -5 -1 -10 -6 -4 -14 -25 -17 -47 -4 -27 -4 -33 2 -20 8 19 9 19 16 2 5
-12 17 -17 39 -15 17 1 37 -2 44 -6 7 -4 12 -2 12 3 0 6 -5 11 -12 11 -6 0 -8
3 -5 6 4 4 13 1 22 -6 13 -11 15 -9 15 13 0 32 -25 42 -43 16 -12 -17 -15 -18
-20 -4 -4 8 -16 15 -28 15 -12 0 -19 5 -16 13 2 6 12 11 22 9 10 -2 14 1 10 7
-9 15 8 14 24 -2 11 -9 14 -9 18 1 3 6 9 12 14 12 6 0 8 -4 5 -8 -3 -5 20 -9
52 -10 82 -1 84 -1 77 -13 -4 -5 -17 -9 -28 -8 -49 3 -82 -1 -68 -10 9 -6 10
-11 2 -15 -16 -10 -14 -26 4 -26 8 0 15 5 15 10 0 6 5 10 11 10 5 0 8 -4 4 -9
-3 -6 28 -9 75 -8 44 1 80 0 80 -3 0 -10 114 0 121 11 4 8 9 8 13 1 4 -7 86
-11 233 -10 222 0 228 -1 245 -22 14 -17 18 -19 18 -6 0 13 12 16 73 15 127
-3 116 -12 112 89 -4 108 -5 113 -20 135 -12 17 -14 17 -41 -10 -18 -17 -26
-21 -21 -10 5 14 1 17 -21 17 -28 0 -58 32 -47 50 4 6 1 10 -4 10 -6 0 -11 16
-11 35 0 31 3 35 28 36 124 4 139 12 55 29 -32 6 -92 24 -133 41 -65 25 -87
29 -170 28 -52 0 -111 -6 -130 -12z m-250 -373 c0 -13 -31 0 -40 17 -11 20
-11 20 14 4 14 -10 26 -19 26 -21z m45 6 c-6 -9 -9 -9 -16 1 -10 17 0 34 13
21 6 -6 7 -16 3 -22z m-115 2 c0 -10 -5 -10 -20 -2 -14 8 -20 8 -20 0 0 -6 -5
-8 -10 -5 -17 10 -2 23 25 21 14 0 25 -7 25 -14z m530 -12 c0 -5 -12 -10 -26
-10 -14 0 -23 4 -19 10 3 6 15 10 26 10 10 0 19 -4 19 -10z m-795 -30 c-3 -5
-10 -10 -16 -10 -5 0 -9 5 -9 10 0 6 7 10 16 10 8 0 12 -4 9 -10z"/>
<path d="M1590 575 l-45 -25 40 6 c22 4 48 11 57 15 9 5 41 9 72 9 30 0 58 5
61 10 4 6 -21 10 -67 10 -58 -1 -82 -6 -118 -25z"/>
<path d="M3435 399 c-10 -15 3 -25 16 -12 7 7 7 13 1 17 -6 3 -14 1 -17 -5z"/>
<path d="M3335 390 c3 -5 12 -7 20 -3 21 7 19 13 -6 13 -11 0 -18 -4 -14 -10z"/>
<path d="M3395 390 c-3 -5 -1 -10 4 -10 6 0 11 5 11 10 0 6 -2 10 -4 10 -3 0
-8 -4 -11 -10z"/>
<path d="M2138 293 l-6 -23 -279 -2 c-153 0 -285 0 -293 0 -8 1 -36 -1 -62 -4
l-48 -6 0 -51 c0 -47 1 -49 15 -31 9 12 14 14 15 6 0 -7 5 -10 11 -7 6 4 8 13
5 21 -7 18 13 29 27 15 8 -8 7 -11 -2 -11 -11 0 -11 -3 -1 -15 10 -12 16 -13
27 -3 11 9 16 9 23 -1 4 -8 16 -11 28 -7 13 4 22 1 26 -9 4 -12 10 -14 25 -5
11 5 26 7 34 4 9 -3 25 -1 36 6 15 7 27 8 40 0 14 -7 20 -7 23 2 3 8 9 8 22 1
11 -6 74 -8 159 -6 148 5 203 -4 243 -39 20 -18 111 -25 160 -12 24 6 50 64
29 64 -8 0 -15 -10 -17 -22 -3 -21 -9 -23 -68 -24 -72 -2 -120 11 -120 33 0 7
6 13 13 12 6 -1 23 3 37 9 24 10 24 11 3 11 -27 1 -31 21 -5 21 11 1 6 6 -13
15 -16 7 -26 14 -22 14 14 2 -21 31 -37 31 -8 0 -16 8 -18 18 -3 14 -5 13 -10
-5z"/>
<path d="M2238 273 c6 -2 18 -2 25 0 6 3 1 5 -13 5 -14 0 -19 -2 -12 -5z"/>
<path d="M2555 250 c14 -16 20 -17 27 -8 13 22 9 28 -19 28 -26 0 -26 0 -8
-20z"/>
<path d="M2270 250 c8 -5 24 -9 35 -9 l20 0 -20 9 c-11 5 -27 9 -35 9 -13 1
-13 0 0 -9z"/>
<path d="M2490 240 c0 -5 5 -10 10 -10 6 0 10 5 10 10 0 6 -4 10 -10 10 -5 0
-10 -4 -10 -10z"/>
<path d="M4330 201 l0 -41 40 0 c39 0 40 1 40 35 0 27 -4 35 -17 35 -10 0 -28
3 -40 6 -21 6 -23 3 -23 -35z"/>
<path d="M2320 210 c0 -5 5 -10 10 -10 6 0 10 5 10 10 0 6 -4 10 -10 10 -5 0
-10 -4 -10 -10z"/>
<path d="M2288 203 c-19 -5 -25 -33 -8 -33 6 0 10 4 10 10 0 5 7 7 15 4 11 -5
13 -2 9 10 -3 9 -7 15 -8 15 0 -1 -9 -3 -18 -6z"/>
<path d="M2340 193 c-13 -15 -12 -16 4 -10 10 4 20 7 22 7 2 0 4 5 4 10 0 15
-13 12 -30 -7z"/>
<path d="M2460 203 c0 -6 8 -17 18 -24 16 -13 16 -13 2 6 -8 11 -16 22 -17 24
-2 2 -3 0 -3 -6z"/>
<path d="M2520 185 c0 -8 2 -15 4 -15 2 0 6 7 10 15 3 8 1 15 -4 15 -6 0 -10
-7 -10 -15z"/>
<path d="M2550 180 c0 -5 5 -10 10 -10 6 0 10 5 10 10 0 6 -4 10 -10 10 -5 0
-10 -4 -10 -10z"/>
<path d="M3800 170 c0 -5 5 -10 10 -10 6 0 10 5 10 10 0 6 -4 10 -10 10 -5 0
-10 -4 -10 -10z"/>
<path d="M1960 130 c0 -5 5 -10 11 -10 5 0 7 5 4 10 -3 6 -8 10 -11 10 -2 0
-4 -4 -4 -10z"/>
</g>
</svg>
