<?xml version="1.0" standalone="no"?>
<!DOCTYPE svg PUBLIC "-//W3C//DTD SVG 20010904//EN"
 "http://www.w3.org/TR/2001/REC-SVG-20010904/DTD/svg10.dtd">
<svg version="1.0" xmlns="http://www.w3.org/2000/svg"
 width="506.000000pt" height="398.000000pt" viewBox="0 0 506.000000 398.000000"
 preserveAspectRatio="xMidYMid meet">

<g transform="translate(0.000000,398.000000) scale(0.100000,-0.100000)"
fill="#000000" stroke="none">
<path d="M2435 3324 c-350 -38 -682 -213 -897 -471 -156 -187 -246 -376 -295
-619 -26 -130 -23 -366 6 -501 112 -531 512 -934 1041 -1049 107 -23 398 -26
505 -5 511 101 922 479 1050 966 38 143 48 243 42 399 -8 206 -45 352 -132
531 -185 379 -539 652 -948 730 -83 16 -298 27 -372 19z m289 -610 c147 -36
262 -100 366 -205 283 -286 292 -710 21 -1010 -210 -233 -539 -308 -834 -190
-278 111 -470 387 -470 676 0 99 12 165 49 266 129 349 507 550 868 463z"/>
<path d="M2385 2680 c-136 -36 -260 -106 -345 -196 -43 -46 -43 -45 19 9 73
65 184 125 291 158 107 33 291 34 404 1 113 -32 224 -94 308 -169 70 -63 70
-62 -10 16 -139 136 -305 202 -505 200 -56 0 -119 -7 -162 -19z"/>
<path d="M2478 2639 c-159 -17 -300 -84 -416 -197 -73 -70 -74 -71 -11 -16 37
33 95 76 130 97 255 151 625 120 851 -70 58 -50 76 -60 48 -29 -32 36 -143
118 -197 145 -110 55 -275 84 -405 70z"/>
<path d="M2433 2576 c-96 -18 -202 -60 -266 -104 -69 -47 -137 -104 -137 -115
0 -5 24 12 53 38 65 58 209 128 304 149 101 22 251 21 349 -4 105 -26 227 -89
316 -162 l73 -59 -74 71 c-80 77 -207 147 -315 175 -87 22 -220 27 -303 11z"/>
<path d="M2415 2515 c-136 -30 -260 -94 -355 -185 l-65 -61 75 59 c94 74 148
106 237 137 260 91 554 28 765 -162 l63 -57 -55 58 c-65 69 -178 146 -257 176
-131 49 -285 62 -408 35z"/>
<path d="M2380 2450 c-119 -31 -228 -91 -313 -173 -41 -40 -53 -54 -28 -32 97
86 191 139 311 176 107 34 290 34 405 1 110 -32 224 -95 309 -171 l71 -63 -81
80 c-138 136 -303 202 -504 201 -60 0 -123 -7 -170 -19z"/>
<path d="M2478 2409 c-151 -17 -304 -86 -403 -182 -59 -58 -60 -58 -8 -15 135
111 272 166 439 175 195 11 376 -44 514 -156 74 -60 87 -67 55 -32 -16 18 -58
53 -92 77 -146 105 -329 153 -505 133z"/>
<path d="M2465 2354 c-163 -27 -344 -118 -435 -220 -29 -33 -9 -20 58 37 61
53 188 116 279 140 107 27 260 27 368 0 102 -27 222 -86 305 -151 l65 -51 -57
55 c-119 114 -287 184 -456 191 -53 2 -110 1 -127 -1z"/>
<path d="M2405 2285 c-95 -21 -258 -102 -320 -161 -31 -28 -36 -36 -15 -20 72
53 171 108 238 132 233 81 492 40 703 -111 l64 -46 -49 46 c-61 58 -156 111
-254 142 -99 32 -263 40 -367 18z"/>
<path d="M2391 2224 c-80 -17 -232 -92 -286 -140 -42 -37 -31 -36 20 2 47 35
163 89 235 110 89 25 289 26 380 1 82 -22 188 -71 248 -114 68 -48 75 -41 10
10 -163 126 -397 177 -607 131z"/>
<path d="M2459 2179 c-37 -5 -100 -20 -140 -35 -73 -26 -225 -111 -215 -121 3
-3 31 11 63 30 237 143 534 143 776 -1 69 -41 87 -37 25 6 -146 100 -335 145
-509 121z"/>
<path d="M2449 2120 c-80 -13 -173 -46 -248 -87 -60 -34 -63 -37 -45 -50 207
-155 546 -162 777 -15 l44 27 -51 31 c-60 36 -143 70 -208 84 -70 15 -206 20
-269 10z"/>
<path d="M2125 1945 c47 -39 174 -102 245 -121 101 -28 283 -25 380 5 83 26
154 59 218 103 61 42 45 46 -19 5 -119 -74 -242 -108 -394 -108 -145 -1 -261
32 -386 107 -66 40 -87 44 -44 9z"/>
<path d="M2102 1909 c129 -119 348 -184 536 -159 141 19 284 79 367 155 l40
37 -51 -36 c-73 -51 -167 -93 -264 -117 -71 -18 -104 -21 -205 -17 -169 7
-250 36 -435 154 -14 9 -10 2 12 -17z"/>
<path d="M2089 1862 c70 -64 188 -127 287 -152 93 -24 238 -26 338 -5 97 20
239 92 306 154 l55 51 -66 -49 c-144 -105 -266 -145 -449 -145 -179 -1 -319
43 -445 139 -79 59 -84 61 -26 7z"/>
<path d="M3074 1859 c-27 -31 -131 -102 -191 -133 -128 -64 -309 -90 -449 -63
-137 26 -245 77 -384 183 -19 14 -8 1 24 -29 75 -70 160 -121 261 -154 71 -24
95 -27 220 -27 127 0 147 2 220 27 103 36 200 94 273 162 31 30 54 54 51 55
-3 0 -14 -10 -25 -21z"/>
<path d="M2013 1822 c77 -96 233 -194 362 -227 238 -62 500 8 680 180 54 51
36 43 -33 -16 -61 -53 -188 -116 -279 -140 -52 -13 -111 -20 -179 -20 -206 0
-379 67 -523 204 -33 31 -44 39 -28 19z"/>
<path d="M3053 1730 c-123 -116 -275 -179 -459 -187 -211 -10 -393 56 -554
201 l-45 41 50 -53 c148 -158 371 -237 590 -211 138 17 256 65 370 153 55 42
129 117 114 116 -2 -1 -32 -27 -66 -60z"/>
<path d="M3075 1689 c-49 -50 -152 -118 -225 -149 -187 -78 -397 -78 -585 1
-63 26 -94 46 -207 128 -32 24 -32 24 -13 2 36 -41 138 -113 210 -147 256
-123 584 -68 794 132 42 40 74 73 71 74 -3 0 -24 -18 -45 -41z"/>
<path d="M1995 1670 c10 -11 20 -20 23 -20 3 0 -3 9 -13 20 -10 11 -20 20 -23
20 -3 0 3 -9 13 -20z"/>
<path d="M3045 1608 c-91 -78 -169 -120 -280 -153 -118 -35 -279 -38 -398 -6
-98 26 -216 87 -285 147 -29 26 -55 44 -58 41 -12 -11 138 -122 221 -163 223
-110 466 -97 692 37 47 28 199 159 183 158 -3 0 -36 -28 -75 -61z"/>
<path d="M2068 1542 c91 -90 193 -148 312 -179 88 -23 263 -22 349 1 132 36
272 116 351 202 27 29 19 25 -35 -19 -146 -120 -302 -177 -481 -178 -205 0
-367 63 -523 203 -31 28 -19 14 27 -30z"/>
<path d="M3100 1545 c-7 -9 -11 -17 -9 -20 3 -2 10 5 17 15 14 24 10 26 -8 5z"/>
<path d="M2062 1487 c84 -82 181 -139 294 -172 231 -67 505 -5 671 152 50 48
51 49 8 13 -208 -174 -521 -220 -770 -112 -79 34 -155 83 -218 139 -32 28 -26
20 15 -20z"/>
</g>
</svg>
